HIERARCHY
ROOT Hips
{
	OFFSET 0.000000 0.000000 0.000000
	CHANNELS 6 Xposition Yposition Zposition Xrotation Yrotation Zrotation
	JOINT LeftUpLeg_virtual
	{
		OFFSET 0.000000 0.000000 0.000000
		CHANNELS 3 Xrotation Yrotation Zrotation
		JOINT LeftUpLeg
		{
			OFFSET 10.205400 -3.823500 0.155100
			CHANNELS 3 Xrotation Yrotation Zrotation
			JOINT LeftLeg
			{
				OFFSET 0.708757 -12.982077 0.567790
				CHANNELS 3 Xrotation Yrotation Zrotation
				JOINT LeftFoot
				{
					OFFSET -0.708756 -10.717838 -2.184338
					CHANNELS 3 Xrotation Yrotation Zrotation
					JOINT LeftToeBase
					{
						OFFSET 0.108149 -7.191104 7.560241
						CHANNELS 3 Xrotation Yrotation Zrotation
						JOINT LeftToe_End
						{
							OFFSET 0.070230 0.081724 4.490308
							CHANNELS 3 Xrotation Yrotation Zrotation
							End Site
							{
								OFFSET 0 0 0
							}
						}
					}
				}
			}
		}
	}
	JOINT RightUpLeg_virtual
	{
		OFFSET 0.000000 0.000000 0.000000
		CHANNELS 3 Xrotation Yrotation Zrotation
		JOINT RightUpLeg
		{
			OFFSET -10.205400 -3.823500 0.005500
			CHANNELS 3 Xrotation Yrotation Zrotation
			JOINT RightLeg
			{
				OFFSET -0.708756 -12.982134 0.610632
				CHANNELS 3 Xrotation Yrotation Zrotation
				JOINT RightFoot
				{
					OFFSET 0.708754 -10.717769 -1.945823
					CHANNELS 3 Xrotation Yrotation Zrotation
					JOINT RightToeBase
					{
						OFFSET -0.108140 -7.191069 7.372968
						CHANNELS 3 Xrotation Yrotation Zrotation
						JOINT RightToe_End
						{
							OFFSET -0.070227 0.081735 4.479403
							CHANNELS 3 Xrotation Yrotation Zrotation
							End Site
							{
								OFFSET 0 0 0
							}
						}
					}
				}
			}
		}
	}
	JOINT Spine_virtual
	{
		OFFSET 0.000000 0.000000 0.000000
		CHANNELS 3 Xrotation Yrotation Zrotation
		JOINT Spine
		{
			OFFSET 0.000000 6.876099 0.125700
			CHANNELS 3 Xrotation Yrotation Zrotation
			JOINT Spine1
			{
				OFFSET 0.000000 5.730043 0.104720
				CHANNELS 3 Xrotation Yrotation Zrotation
				JOINT Spine1_split
				{
					OFFSET 0.000000 5.730043 0.104720
					CHANNELS 3 Xrotation Yrotation Zrotation
					JOINT Spine2
					{
						OFFSET 0.000000 5.730043 0.104720
						CHANNELS 3 Xrotation Yrotation Zrotation
						JOINT Neck_virtual
						{
							OFFSET 0.000000 0.000000 0.000000
							CHANNELS 3 Xrotation Yrotation Zrotation
							JOINT Neck
							{
								OFFSET 0.000000 10.314075 0.188496
								CHANNELS 3 Xrotation Yrotation Zrotation
								JOINT Head
								{
									OFFSET 0.000000 7.643700 -2.377400
									CHANNELS 3 Xrotation Yrotation Zrotation
									JOINT HeadTop_End
									{
										OFFSET 0.000000 43.788605 -13.619600
										CHANNELS 3 Xrotation Yrotation Zrotation
										End Site
										{
											OFFSET 0 0 0
										}
									}
								}
							}
						}
						JOINT LeftShoulder_virtual
						{
							OFFSET 0.000000 0.000000 0.000000
							CHANNELS 3 Xrotation Yrotation Zrotation
							JOINT LeftShoulder
							{
								OFFSET 2.196100 4.412489 0.087492
								CHANNELS 3 Xrotation Yrotation Zrotation
								JOINT LeftShoulder_split
								{
									OFFSET 2.196100 4.412489 0.087492
									CHANNELS 3 Xrotation Yrotation Zrotation
									JOINT LeftArm
									{
										OFFSET 8.771219 -2.981674 -0.026999
										CHANNELS 3 Xrotation Yrotation Zrotation
										JOINT LeftForeArm
										{
											OFFSET 8.512804 0.000000 -0.000000
											CHANNELS 3 Xrotation Yrotation Zrotation
											JOINT LeftHand
											{
												OFFSET 18.484802 0.000000 -0.000000
												CHANNELS 3 Xrotation Yrotation Zrotation
												End Site
												{
													OFFSET 0 0 0
												}
											}
										}
									}
								}
							}
						}
						JOINT RightShoulder_virtual
						{
							OFFSET 0.000000 0.000000 0.000000
							CHANNELS 3 Xrotation Yrotation Zrotation
							JOINT RightShoulder
							{
								OFFSET -2.196100 4.412496 0.070690
								CHANNELS 3 Xrotation Yrotation Zrotation
								JOINT RightShoulder_split
								{
									OFFSET -2.196100 4.412496 0.070690
									CHANNELS 3 Xrotation Yrotation Zrotation
									JOINT RightArm
									{
										OFFSET -8.771282 -2.981682 -0.094208
										CHANNELS 3 Xrotation Yrotation Zrotation
										JOINT RightForeArm
										{
											OFFSET -8.494598 0.000000 0.000000
											CHANNELS 3 Xrotation Yrotation Zrotation
											JOINT RightHand
											{
												OFFSET -18.483803 0.000000 0.000001
												CHANNELS 3 Xrotation Yrotation Zrotation
												End Site
												{
													OFFSET 0 0 0
												}
											}
										}
									}
								}
							}
						}
					}
				}
			}
		}
	}
}
MOTION
Frames: 10
Frame Time: 0.03333333
-0.340385 32.767082 1.015667 0.000000 0.000000 0.000000 -3.610815 -3.917302 9.177910 -32.039567 1.971921 2.373729 27.863046 7.509004 5.309089 27.192139 5.623086 -13.557685 -9.412595 1.872350 -0.072436 0.000000 0.000000 0.000000 -3.342440 -3.303184 8.754131 1.678812 -3.285053 11.863409 14.361414 -7.657638 4.470176 -13.808705 -12.140463 -21.404537 -4.683622 0.951239 -3.938025 0.000000 0.000000 0.000000 -4.545112 -9.325523 8.122787 0.600301 1.360463 -2.538954 2.533062 3.193836 -4.607805 0.685755 -1.871096 0.159763 0.000000 0.000000 0.000000 0.607357 3.197211 -4.572926 2.945974 -1.317109 0.549784 9.967685 10.745696 7.732150 0.000000 0.000000 0.000000 1.330203 2.998679 -4.706672 -0.143770 3.137333 -1.685372 -3.804817 0.473203 -1.498775 -15.609211 6.718750 -21.027533 0.223008 -18.693290 -1.146528 0.000000 0.000000 0.000000 0.941095 3.154153 -4.411855 1.145151 -2.667836 5.906689 -3.403878 0.220379 -0.906731 -48.361359 33.624437 15.118199 -0.277252 12.636658 0.459351 0.000000 0.000000 0.000000 
-0.638833 32.777718 1.494844 0.000000 0.000000 0.000000 -4.524899 -5.156993 9.246466 -33.095330 4.482125 -0.516349 26.612463 9.121552 5.180376 25.975331 7.382586 -11.343168 -9.831121 1.282845 1.154897 0.000000 0.000000 0.000000 -3.453963 -5.687364 8.776919 1.606958 -4.680338 11.618196 17.924870 -7.372298 5.229957 -11.388547 -12.441651 -21.563040 -5.984619 0.617034 -2.978398 0.000000 0.000000 0.000000 -4.696044 -10.755925 8.226629 0.654480 1.539892 -2.856321 2.527556 3.525819 -4.578554 0.823368 -1.464406 0.076002 0.000000 0.000000 0.000000 0.813368 3.566156 -4.550706 3.155188 -1.365576 0.835613 9.626668 10.650194 7.723965 0.000000 0.000000 0.000000 1.433110 3.376608 -4.614976 -0.104853 3.298462 -0.392269 -4.515362 0.322737 -0.654981 -17.989656 7.290644 -19.351746 -0.245031 -18.235910 -1.100862 0.000000 0.000000 0.000000 1.014707 3.458334 -4.387314 0.964672 -2.964842 5.506277 -3.464081 0.837235 -1.353819 -49.137634 35.731021 15.116100 -0.033907 14.342091 0.007297 0.000000 0.000000 0.000000 
-0.883140 32.755299 2.118204 0.000000 0.000000 0.000000 -5.259775 -8.716061 9.261345 -33.192892 7.417209 -5.280841 25.743775 10.637031 4.798700 25.911533 9.488448 -10.124764 -9.642264 0.558972 2.609993 0.000000 0.000000 0.000000 -3.650728 -10.452255 8.947096 1.878111 -5.482197 10.659392 22.800435 -6.611130 5.801582 -10.050818 -11.805263 -21.446674 -8.778884 0.015239 -0.971538 0.000000 0.000000 0.000000 -5.026393 -13.581151 8.412676 0.511207 2.249231 -3.286361 2.562953 4.344728 -4.462656 0.801617 -1.377807 0.079653 0.000000 0.000000 0.000000 1.033054 4.418084 -4.423430 3.170634 -1.353055 0.971214 9.572265 10.404402 7.512022 0.000000 0.000000 0.000000 1.505851 4.286607 -4.402859 -0.173518 3.362473 1.552220 -4.634063 0.519876 -0.529287 -19.629568 8.343751 -15.624935 -0.495115 -18.061226 -0.882437 0.000000 0.000000 0.000000 1.160747 4.244562 -4.272723 0.944360 -3.504131 4.798083 -3.087686 0.828190 -1.236764 -50.060632 39.649453 14.561656 0.242396 16.321557 -0.447090 0.000000 0.000000 0.000000 
-1.167359 32.699196 2.804132 0.000000 0.000000 0.000000 -5.589932 -13.862124 9.196991 -32.195483 9.990681 -10.868398 25.738815 11.736060 4.157918 27.196949 11.599292 -9.955350 -11.135309 -0.284322 4.748223 0.000000 0.000000 0.000000 -3.614791 -16.084604 9.134846 2.900075 -5.634464 9.692114 26.324806 -5.775893 5.697824 -11.510324 -9.917368 -21.929915 -11.029822 -0.608882 1.483158 0.000000 0.000000 0.000000 -5.462682 -17.061010 8.408938 0.327242 3.217505 -3.706335 2.627511 5.438294 -4.223366 0.431234 -1.747190 0.207460 0.000000 0.000000 0.000000 1.195812 5.535169 -4.143047 2.992042 -1.192580 0.977794 9.746200 10.151857 7.109504 0.000000 0.000000 0.000000 1.528230 5.484373 -4.074014 -0.304693 3.388418 3.750789 -4.106547 1.031786 -0.962914 -20.400368 9.862423 -10.779703 -0.624579 -17.388699 -0.573579 0.000000 0.000000 0.000000 1.349715 5.347054 -4.046572 1.031004 -4.188750 3.890385 -2.597105 0.351483 -0.645773 -50.726903 44.460427 13.328879 0.498385 17.853995 -0.863040 0.000000 0.000000 0.000000 
-1.545478 32.632931 3.458294 0.000000 0.000000 0.000000 -5.418436 -19.754828 8.991958 -30.462343 11.879458 -16.488007 26.462087 12.746244 3.510289 28.067220 14.274796 -9.093529 -14.282061 -1.148746 6.804904 0.000000 0.000000 0.000000 -3.187099 -21.301000 9.175388 5.049392 -5.500707 9.585307 27.237997 -5.269755 4.820260 -15.271880 -6.932625 -22.544105 -12.194585 -0.875938 3.597409 0.000000 0.000000 0.000000 -5.535783 -20.883361 8.074282 0.064597 4.143016 -3.987180 2.654137 6.564065 -3.851565 0.172241 -1.805410 0.120883 0.000000 0.000000 0.000000 1.280030 6.665106 -3.742752 2.814069 -0.910810 0.931189 10.062778 10.077133 6.576486 0.000000 0.000000 0.000000 1.474107 6.703354 -3.663228 -0.472018 3.467795 5.700136 -3.515553 1.649679 -1.140355 -20.652460 11.603310 -5.696957 -0.751359 -16.128607 -0.245315 0.000000 0.000000 0.000000 1.483735 6.507292 -3.711219 1.198434 -4.843270 3.028124 -2.234989 -0.080904 -0.013725 -51.249317 49.211554 11.704088 0.665520 18.500525 -1.183197 0.000000 0.000000 0.000000 
-2.069664 32.497826 4.080061 0.000000 0.000000 0.000000 -5.009269 -25.424486 8.532718 -28.522742 13.183527 -21.126376 28.186353 13.907668 2.865152 26.044978 18.082902 -6.149631 -15.730018 -1.475172 7.009798 0.000000 0.000000 0.000000 -2.925894 -25.355459 8.872896 7.983105 -5.608526 10.818524 26.079522 -4.950426 3.498399 -19.253671 -3.664383 -21.973663 -13.304547 -0.629001 4.580337 0.000000 0.000000 0.000000 -5.437794 -24.501159 7.290542 -0.285907 4.758263 -4.102820 2.530764 7.506897 -3.441992 0.763469 -1.522798 -0.046675 0.000000 0.000000 0.000000 1.261555 7.591719 -3.329298 2.869764 -0.538483 0.898158 10.433399 10.228124 6.025204 0.000000 0.000000 0.000000 1.328198 7.727304 -3.259455 -0.627625 3.628786 7.017163 -3.400812 2.087179 -1.243732 -20.913723 13.365954 -0.960033 -1.036273 -14.583842 -0.001066 0.000000 0.000000 0.000000 1.500512 7.511522 -3.364621 1.405230 -5.387110 2.299466 -1.933544 -0.210200 0.423131 -51.792273 53.270995 10.205645 0.693104 18.434990 -1.354846 0.000000 0.000000 0.000000 
-2.816757 32.309273 4.730761 0.000000 0.000000 0.000000 -4.545960 -30.208663 7.850665 -26.643762 13.895633 -24.345878 30.553622 15.279844 2.257014 19.674625 22.583372 -0.726909 -14.055012 -1.034595 5.044026 0.000000 0.000000 0.000000 -2.748590 -28.180290 8.171810 10.818823 -6.411190 13.209333 24.637382 -4.554602 2.008902 -22.477960 -0.777315 -19.819286 -15.991466 0.097675 3.968894 0.000000 0.000000 0.000000 -5.268350 -27.912827 6.067296 -0.689541 5.027730 -4.011633 2.228680 8.204399 -3.144465 1.604320 -0.506717 0.164303 0.000000 0.000000 0.000000 1.167785 8.218936 -3.041168 3.309308 -0.150569 1.028552 10.744665 10.698799 5.572094 0.000000 0.000000 0.000000 1.040290 8.448597 -2.996444 -0.760463 3.969441 7.601027 -3.341465 2.077425 -0.920808 -21.937818 14.751103 2.966260 -1.548019 -13.158718 0.097382 0.000000 0.000000 0.000000 1.333170 8.226845 -3.144854 1.598555 -5.835024 1.846209 -1.688597 -0.109901 0.540587 -52.863356 56.300081 9.615411 0.601919 18.081538 -1.407644 0.000000 0.000000 0.000000 
-3.712497 32.070148 5.251253 0.000000 0.000000 0.000000 -4.211992 -33.537120 6.927768 -25.137997 14.182102 -25.924757 32.942873 16.136206 1.747222 10.533143 26.318056 5.966564 -10.906909 -0.216637 1.878066 0.000000 0.000000 0.000000 -2.842832 -30.335032 7.104835 12.612801 -8.128834 16.123713 24.861457 -4.100216 0.548102 -24.734972 1.668509 -16.697729 -21.109379 1.182644 1.866529 0.000000 0.000000 0.000000 -5.090994 -31.023129 4.727504 -1.022849 4.986299 -3.750366 1.784767 8.696288 -3.115219 1.851129 0.538033 0.333892 0.000000 0.000000 0.000000 1.059107 8.571205 -3.041269 4.159638 0.220617 1.366953 10.913070 11.474895 5.291731 0.000000 0.000000 0.000000 0.555434 8.879826 -2.975022 -0.889797 4.421119 7.441303 -3.488073 1.542785 -0.183806 -23.629347 15.406706 6.006886 -2.156113 -12.360861 0.056811 0.000000 0.000000 0.000000 0.915922 8.625335 -3.176953 1.756405 -6.180711 1.775799 -1.436444 0.151681 0.368817 -54.876332 57.981578 10.663812 0.460354 17.830451 -1.359816 0.000000 0.000000 0.000000 
-4.646797 31.818840 5.574123 0.000000 0.000000 0.000000 -4.228100 -35.681823 5.836759 -24.166898 14.301406 -25.854078 34.762118 15.876823 1.307880 2.019702 28.242086 11.281135 -8.693156 0.523312 -0.928649 0.000000 0.000000 0.000000 -3.306946 -32.268460 5.821075 12.611540 -10.940618 18.206880 29.052165 -3.766723 -0.441733 -25.491678 3.686353 -14.175698 -26.571353 2.736520 -1.050347 0.000000 0.000000 0.000000 -5.057101 -33.580922 3.580090 -1.113416 4.756829 -3.493370 1.271967 8.989730 -3.416210 1.605219 1.059793 0.536074 0.000000 0.000000 0.000000 0.932609 8.714156 -3.391294 5.058631 0.492288 1.829380 10.781632 12.499205 5.234537 0.000000 0.000000 0.000000 0.000371 9.073521 -3.260410 -1.004411 4.875461 6.815206 -3.685301 0.415833 0.679793 -25.492194 15.271248 8.106074 -2.705288 -12.085575 -0.114683 0.000000 0.000000 0.000000 0.368743 8.772857 -3.528722 1.850003 -6.365662 2.173402 -1.236919 0.198131 0.140386 -57.199477 57.977009 13.099348 0.353080 18.007789 -1.250662 0.000000 0.000000 0.000000 
-5.576839 31.598770 5.685984 0.000000 0.000000 0.000000 -4.619986 -37.060473 4.856256 -23.789726 14.350386 -24.568995 35.797295 14.851671 0.910545 -3.319815 28.775088 13.893726 -8.344216 1.025134 -2.356437 0.000000 0.000000 0.000000 -3.972010 -34.125671 4.714895 10.053980 -14.982606 18.006248 37.253559 -3.543550 -0.800947 -23.222573 4.998084 -12.322454 -31.787475 4.582511 -4.008389 0.000000 0.000000 0.000000 -4.960559 -35.702372 2.884922 -0.907643 4.516486 -3.405745 0.808260 9.116679 -3.981319 1.180996 0.991314 0.610936 0.000000 0.000000 0.000000 0.783739 8.722787 -4.038900 5.573316 0.711535 2.311554 10.312988 13.589322 5.428599 0.000000 0.000000 0.000000 -0.458967 9.085084 -3.820534 -1.090582 5.277711 6.008708 -3.530337 -1.189545 1.473748 -27.163896 14.312141 9.075803 -3.013178 -11.640362 -0.369501 0.000000 0.000000 0.000000 -0.159767 8.741416 -4.151523 1.841348 -6.345700 3.156639 -1.055223 0.012323 -0.128765 -58.929766 55.844535 16.314043 0.324621 19.053695 -1.156056 0.000000 0.000000 0.000000 
